<mxfile host="app.diagrams.net" modified="2021-11-25T14:46:17.439Z" agent="5.0 (Macintosh; Intel Mac OS X 10_15_7) AppleWebKit/537.36 (KHTML, like Gecko) Chrome/94.0.4606.61 Safari/537.36" etag="hRR49CSiOnIR5THWHEDt" version="15.6.8" type="github">
  <diagram id="kgpKYQtTHZ0yAKxKKP6v" name="Page-1">
    <mxGraphModel dx="1298" dy="809" grid="0" gridSize="10" guides="1" tooltips="1" connect="1" arrows="1" fold="1" page="1" pageScale="1" pageWidth="850" pageHeight="1100" math="0" shadow="0">
      <root>
        <mxCell id="0" />
        <mxCell id="1" parent="0" />
        <mxCell id="z9opmIHiARBxPkGekNrL-29" style="edgeStyle=none;rounded=0;orthogonalLoop=1;jettySize=auto;html=1;exitX=0.5;exitY=0;exitDx=0;exitDy=0;" edge="1" parent="1" source="z9opmIHiARBxPkGekNrL-1" target="z9opmIHiARBxPkGekNrL-2">
          <mxGeometry relative="1" as="geometry" />
        </mxCell>
        <mxCell id="z9opmIHiARBxPkGekNrL-1" value="产品配置中心" style="shape=ext;double=1;rounded=0;whiteSpace=wrap;html=1;" vertex="1" parent="1">
          <mxGeometry x="199" y="379" width="120" height="80" as="geometry" />
        </mxCell>
        <mxCell id="z9opmIHiARBxPkGekNrL-30" style="edgeStyle=none;rounded=0;orthogonalLoop=1;jettySize=auto;html=1;exitX=1;exitY=0.5;exitDx=0;exitDy=0;entryX=0;entryY=0.5;entryDx=0;entryDy=0;" edge="1" parent="1" source="z9opmIHiARBxPkGekNrL-2" target="z9opmIHiARBxPkGekNrL-4">
          <mxGeometry relative="1" as="geometry" />
        </mxCell>
        <mxCell id="z9opmIHiARBxPkGekNrL-2" value="客户管理中心" style="shape=ext;double=1;rounded=0;whiteSpace=wrap;html=1;" vertex="1" parent="1">
          <mxGeometry x="199" y="265" width="120" height="80" as="geometry" />
        </mxCell>
        <mxCell id="z9opmIHiARBxPkGekNrL-6" value="" style="edgeStyle=orthogonalEdgeStyle;rounded=0;orthogonalLoop=1;jettySize=auto;html=1;" edge="1" parent="1" source="z9opmIHiARBxPkGekNrL-4" target="z9opmIHiARBxPkGekNrL-5">
          <mxGeometry relative="1" as="geometry" />
        </mxCell>
        <mxCell id="z9opmIHiARBxPkGekNrL-32" style="edgeStyle=orthogonalEdgeStyle;rounded=0;orthogonalLoop=1;jettySize=auto;html=1;exitX=1;exitY=0.5;exitDx=0;exitDy=0;entryX=0.5;entryY=1;entryDx=0;entryDy=0;" edge="1" parent="1" source="z9opmIHiARBxPkGekNrL-4" target="z9opmIHiARBxPkGekNrL-7">
          <mxGeometry relative="1" as="geometry" />
        </mxCell>
        <mxCell id="z9opmIHiARBxPkGekNrL-4" value="数据采集服务" style="shape=ext;double=1;rounded=0;whiteSpace=wrap;html=1;" vertex="1" parent="1">
          <mxGeometry x="395.5" y="265" width="120" height="80" as="geometry" />
        </mxCell>
        <mxCell id="z9opmIHiARBxPkGekNrL-5" value="客户大屏" style="shape=ext;double=1;rounded=0;whiteSpace=wrap;html=1;" vertex="1" parent="1">
          <mxGeometry x="395" y="100" width="120" height="80" as="geometry" />
        </mxCell>
        <mxCell id="z9opmIHiARBxPkGekNrL-33" style="edgeStyle=orthogonalEdgeStyle;rounded=0;orthogonalLoop=1;jettySize=auto;html=1;entryX=1;entryY=0.5;entryDx=0;entryDy=0;exitX=0.5;exitY=0;exitDx=0;exitDy=0;" edge="1" parent="1" source="z9opmIHiARBxPkGekNrL-7" target="z9opmIHiARBxPkGekNrL-5">
          <mxGeometry relative="1" as="geometry" />
        </mxCell>
        <mxCell id="z9opmIHiARBxPkGekNrL-7" value="grafana" style="shape=ext;double=1;rounded=0;whiteSpace=wrap;html=1;" vertex="1" parent="1">
          <mxGeometry x="551" y="210" width="120" height="49" as="geometry" />
        </mxCell>
        <mxCell id="z9opmIHiARBxPkGekNrL-31" style="edgeStyle=none;rounded=0;orthogonalLoop=1;jettySize=auto;html=1;" edge="1" parent="1" source="z9opmIHiARBxPkGekNrL-12" target="z9opmIHiARBxPkGekNrL-4">
          <mxGeometry relative="1" as="geometry" />
        </mxCell>
        <mxCell id="z9opmIHiARBxPkGekNrL-12" value="" style="verticalLabelPosition=bottom;verticalAlign=top;html=1;shape=mxgraph.basic.rect;fillColor2=none;strokeWidth=1;size=20;indent=5;" vertex="1" parent="1">
          <mxGeometry x="149" y="491" width="613" height="129" as="geometry" />
        </mxCell>
        <mxCell id="z9opmIHiARBxPkGekNrL-3" value="数据源" style="shape=ext;double=1;rounded=0;whiteSpace=wrap;html=1;" vertex="1" parent="1">
          <mxGeometry x="161" y="503" width="72" height="35" as="geometry" />
        </mxCell>
        <mxCell id="z9opmIHiARBxPkGekNrL-21" value="" style="edgeStyle=none;rounded=0;orthogonalLoop=1;jettySize=auto;html=1;horizontal=1;entryX=1;entryY=0.5;entryDx=0;entryDy=0;" edge="1" parent="1" source="z9opmIHiARBxPkGekNrL-16" target="z9opmIHiARBxPkGekNrL-16">
          <mxGeometry relative="1" as="geometry" />
        </mxCell>
        <mxCell id="z9opmIHiARBxPkGekNrL-16" value="openapi" style="rounded=0;whiteSpace=wrap;html=1;align=center;" vertex="1" parent="1">
          <mxGeometry x="213" y="561" width="77" height="40" as="geometry" />
        </mxCell>
        <mxCell id="z9opmIHiARBxPkGekNrL-17" value="云监控" style="rounded=0;whiteSpace=wrap;html=1;align=center;" vertex="1" parent="1">
          <mxGeometry x="333" y="561" width="77" height="40" as="geometry" />
        </mxCell>
        <mxCell id="z9opmIHiARBxPkGekNrL-18" value="……" style="whiteSpace=wrap;html=1;rounded=0;" vertex="1" parent="1">
          <mxGeometry x="611" y="561" width="104" height="39" as="geometry" />
        </mxCell>
        <mxCell id="z9opmIHiARBxPkGekNrL-22" value="各产品其他数据源" style="rounded=0;whiteSpace=wrap;html=1;align=center;" vertex="1" parent="1">
          <mxGeometry x="446" y="560" width="121" height="41" as="geometry" />
        </mxCell>
        <mxCell id="z9opmIHiARBxPkGekNrL-27" style="edgeStyle=none;rounded=0;orthogonalLoop=1;jettySize=auto;html=1;exitX=1;exitY=0.5;exitDx=0;exitDy=0;exitPerimeter=0;" edge="1" parent="1" source="z9opmIHiARBxPkGekNrL-24" target="z9opmIHiARBxPkGekNrL-1">
          <mxGeometry relative="1" as="geometry" />
        </mxCell>
        <mxCell id="z9opmIHiARBxPkGekNrL-24" value="图表模板" style="strokeWidth=2;html=1;shape=mxgraph.flowchart.document2;whiteSpace=wrap;size=0.25;align=center;" vertex="1" parent="1">
          <mxGeometry x="61" y="365" width="84" height="51" as="geometry" />
        </mxCell>
        <mxCell id="z9opmIHiARBxPkGekNrL-28" style="edgeStyle=none;rounded=0;orthogonalLoop=1;jettySize=auto;html=1;exitX=1;exitY=0.5;exitDx=0;exitDy=0;exitPerimeter=0;entryX=0;entryY=0.65;entryDx=0;entryDy=0;entryPerimeter=0;" edge="1" parent="1" source="z9opmIHiARBxPkGekNrL-25" target="z9opmIHiARBxPkGekNrL-1">
          <mxGeometry relative="1" as="geometry" />
        </mxCell>
        <mxCell id="z9opmIHiARBxPkGekNrL-25" value="监控指标" style="strokeWidth=2;html=1;shape=mxgraph.flowchart.document2;whiteSpace=wrap;size=0.25;align=center;" vertex="1" parent="1">
          <mxGeometry x="61" y="430" width="84" height="51" as="geometry" />
        </mxCell>
      </root>
    </mxGraphModel>
  </diagram>
</mxfile>
